<?xml version="1.0" standalone="no"?>
<!DOCTYPE svg PUBLIC "-//W3C//DTD SVG 20010904//EN"
 "http://www.w3.org/TR/2001/REC-SVG-20010904/DTD/svg10.dtd">
<svg version="1.0" xmlns="http://www.w3.org/2000/svg"
 width="1352.000000pt" height="2956.000000pt" viewBox="0 0 1352.000000 2956.000000"
 preserveAspectRatio="xMidYMid meet">

<g transform="translate(0.000000,2956.000000) scale(0.100000,-0.100000)"
fill="#ff0000" stroke="black" stroke-width="3px">
<path d="M5470 29134 c-390 -31 -797 -78 -1035 -119 -194 -35 -325 -57 -435
-76 -63 -11 -140 -24 -170 -30 -30 -5 -82 -14 -115 -20 -33 -5 -82 -16 -110
-24 -27 -7 -75 -18 -105 -25 -50 -10 -103 -22 -285 -65 -105 -25 -179 -44
-226 -60 -26 -8 -54 -15 -63 -15 -58 0 -737 -231 -824 -280 -9 -6 -69 -32
-133 -60 -64 -27 -152 -71 -195 -98 -44 -26 -86 -51 -95 -54 -9 -4 -55 -34
-101 -67 -109 -77 -213 -189 -258 -277 l-35 -69 -3 -1515 c-2 -1500 -2 -1516
18 -1605 67 -289 188 -467 426 -622 77 -49 276 -143 306 -143 7 0 33 -6 58
-15 51 -16 264 -71 354 -91 32 -7 70 -17 85 -23 14 -5 49 -12 76 -16 28 -3 75
-12 105 -20 75 -19 202 -44 280 -55 36 -5 97 -16 135 -24 130 -28 230 -45 300
-51 64 -6 161 -22 355 -60 41 -8 113 -17 160 -21 115 -8 241 -33 263 -52 12
-11 17 -30 17 -66 0 -68 44 -308 69 -374 30 -80 91 -155 156 -191 25 -13 77
-17 331 -21 248 -4 304 -8 319 -20 17 -14 18 -51 12 -825 -4 -445 -9 -1831
-12 -3080 -3 -1248 -10 -2538 -15 -2865 -6 -327 -15 -840 -20 -1140 -6 -300
-10 -658 -10 -796 0 -201 -3 -261 -16 -305 -9 -30 -22 -74 -29 -99 -7 -25 -25
-85 -40 -135 -46 -153 -57 -197 -67 -275 -5 -41 -13 -534 -18 -1095 -8 -1076
-22 -2097 -40 -2985 -6 -294 -13 -861 -16 -1260 -2 -399 -9 -975 -14 -1280 -6
-305 -10 -791 -10 -1080 0 -607 -17 -1872 -29 -2102 l-8 -157 -45 -88 c-71
-138 -82 -179 -75 -297 3 -56 12 -146 21 -201 23 -150 45 -344 56 -495 6 -74
15 -184 20 -245 5 -60 10 -254 11 -430 0 -176 4 -390 8 -475 7 -143 10 -161
39 -230 25 -59 46 -89 95 -137 119 -118 263 -188 507 -247 30 -8 75 -19 100
-25 138 -33 275 -43 560 -39 279 5 414 15 555 43 39 7 88 16 110 20 102 16
313 93 485 178 82 40 197 144 257 232 46 69 47 77 53 545 6 505 30 822 90
1195 6 33 15 98 21 145 5 47 17 106 24 131 35 109 11 218 -76 344 l-52 77 -9
112 c-10 141 -28 1564 -38 3001 -4 611 -10 1277 -14 1480 -9 524 -15 1084 -26
2215 -5 542 -12 1104 -15 1250 -4 146 -10 612 -15 1035 -11 901 -7 857 -105
1080 -35 80 -52 124 -81 215 l-29 85 -7 435 c-4 239 -11 703 -17 1030 -22
1354 -19 6243 4 6330 4 14 10 174 15 355 4 182 13 404 20 495 6 91 14 207 16
258 4 62 11 97 21 107 12 12 53 15 227 15 158 0 225 4 262 15 132 39 222 236
240 525 3 36 7 75 9 87 10 42 71 59 310 83 55 6 134 17 175 25 41 8 98 14 125
15 28 0 75 7 105 15 30 8 70 15 88 15 17 0 78 9 135 20 56 10 158 29 227 40
69 12 143 26 165 32 22 6 72 16 110 23 162 30 307 63 495 114 212 57 291 82
395 126 17 7 47 20 68 29 63 26 201 131 293 224 90 91 129 155 191 312 59 150
58 116 58 1750 l0 1495 -32 66 c-81 164 -213 282 -483 432 -96 53 -282 139
-385 178 -44 17 -89 34 -100 39 -90 41 -426 152 -585 194 -36 10 -93 26 -128
37 -34 10 -70 19 -79 19 -9 0 -39 7 -67 15 -28 8 -94 24 -146 35 -52 12 -131
29 -175 40 -284 66 -390 88 -455 95 -30 4 -71 11 -90 16 -20 5 -71 13 -115 19
-44 6 -109 17 -145 25 -60 13 -175 31 -440 70 -58 8 -166 22 -240 30 -530 57
-677 65 -1180 64 -260 -1 -514 -7 -610 -15z m523 -26401 c77 -60 125 -204 111
-331 -6 -55 -12 -71 -41 -103 -40 -44 -86 -61 -138 -49 -83 19 -108 83 -109
271 -1 109 1 118 29 174 46 90 74 97 148 38z"/>
</g>
</svg>
